<svg width="120" height="120" viewBox="0 0 120 120" fill="none" xmlns="http://www.w3.org/2000/svg">
<path d="M0.1875 0.1875V43.6875H11.0625V54.5625H21.9375V43.6875H43.6875V0.1875H0.1875ZM43.6875 43.6875V54.5625H54.5625V65.4375H32.8125V76.3125H0.1875V119.812H43.6875V76.3125H76.3125V65.4375H65.4375V54.5625H87.1875V43.6875H98.0625V54.5625H108.938V43.6875H119.812V0.1875H76.3125V43.6875H43.6875ZM108.938 54.5625V65.4375H119.812V54.5625H108.938ZM108.938 65.4375H98.0625V76.3125H108.938V65.4375ZM108.938 76.3125V87.1875H119.812V76.3125H108.938ZM108.938 87.1875H98.0625V76.3125H87.1875V87.1875H60V119.812H70.875V98.0625H92.625V108.938H103.5V98.0625H108.938V87.1875ZM92.625 108.938H81.75V119.812H92.625V108.938ZM98.0625 65.4375V54.5625H87.1875V65.4375H98.0625ZM32.8125 65.4375V54.5625H21.9375V65.4375H32.8125ZM11.0625 54.5625H0.1875V65.4375H11.0625V54.5625ZM54.5625 0.1875V21.9375H49.125V32.8125H54.5625V38.25H65.4375V21.9375H70.875V11.0625H65.4375V0.1875H54.5625ZM11.0625 11.0625H32.8125V32.8125H11.0625V11.0625ZM87.1875 11.0625H108.938V32.8125H87.1875V11.0625ZM16.5 16.5V27.375H27.375V16.5H16.5ZM92.625 16.5V27.375H103.5V16.5H92.625ZM11.0625 87.1875H32.8125V108.938H11.0625V87.1875ZM16.5 92.625V103.5H27.375V92.625H16.5ZM108.938 108.938V119.812H119.812V108.938H108.938Z" fill="white"/>
</svg>
