<svg width="50" height="50" viewBox="0 0 50 50" fill="none" xmlns="http://www.w3.org/2000/svg">
<g clip-path="url(#clip0)">
<path d="M49.2523 31.0458C45.912 44.4458 32.3357 52.5915 18.9548 49.2511C5.55441 45.9108 -2.5913 32.3351 0.749134 18.9544C4.08937 5.55439 17.646 -2.59131 31.0464 0.74912C44.4273 4.06982 52.5927 17.6456 49.2523 31.0458Z" fill="#F1A132"/>
<path d="M36.9033 21.8848C37.3916 18.5645 34.8721 16.7676 31.3955 15.5762L32.5283 11.0645L29.7939 10.3809L28.7002 14.7754C27.9775 14.5996 27.2354 14.4238 26.4932 14.2676L27.5869 9.85352L24.8525 9.16992L23.7393 13.6621C23.1338 13.5254 22.5479 13.3887 21.9814 13.252V13.2324L18.1924 12.2949L17.4697 15.2246C17.4697 15.2246 19.501 15.6934 19.4619 15.7129C20.5752 15.9863 20.7705 16.7285 20.7314 17.3145L19.4424 22.4512C19.5205 22.4707 19.6182 22.4902 19.7354 22.5488C19.6377 22.5293 19.54 22.5098 19.4424 22.4707L17.6455 29.6582C17.5088 29.9902 17.1572 30.498 16.3955 30.3027C16.415 30.3418 14.4033 29.8145 14.4033 29.8145L13.0361 32.959L16.6104 33.8574C17.2744 34.0332 17.9189 34.1895 18.5635 34.3652L17.4307 38.916L20.165 39.5996L21.2979 35.0879C22.04 35.2832 22.7822 35.4785 23.4854 35.6543L22.3721 40.1465L25.1064 40.8301L26.2393 36.2793C30.9268 37.1582 34.4424 36.8066 35.9072 32.5684C37.0986 29.1699 35.8486 27.1973 33.3877 25.9082C35.2041 25.498 36.5518 24.3066 36.9033 21.8848ZM30.6338 30.6738C29.7939 34.0723 24.0518 32.2363 22.1963 31.7676L23.7002 25.7324C25.5557 26.2012 31.5322 27.1191 30.6338 30.6738ZM31.4932 21.8262C30.7119 24.9316 25.9463 23.3496 24.4033 22.959L25.7705 17.4902C27.3135 17.8809 32.2939 18.6035 31.4932 21.8262Z" fill="white"/>
</g>
<defs>
<clipPath id="clip0">
<rect width="50" height="50" fill="white"/>
</clipPath>
</defs>
</svg>
