<svg width="52" height="52" viewBox="0 0 52 52" fill="none" xmlns="http://www.w3.org/2000/svg">
<path d="M44.7395 27.9044C46.1218 26.4425 47.1872 24.7108 47.8689 22.8179C48.5507 20.9249 48.8341 18.9116 48.7013 16.904C48.5686 14.8964 48.0226 12.9379 47.0976 11.1512C46.1726 9.3645 44.8885 7.78813 43.3257 6.52089C41.763 5.25366 39.9554 4.32288 38.0161 3.7869C36.0769 3.25092 34.0478 3.12129 32.0561 3.40614C30.0644 3.69099 28.153 4.38418 26.4418 5.44225C24.7305 6.50032 23.2562 7.90048 22.1114 9.55494C21.5583 8.08998 20.6603 6.77987 19.4935 5.73556C18.3266 4.69125 16.9253 3.94351 15.4082 3.55564C13.8911 3.16777 12.3029 3.1512 10.778 3.50734C9.25317 3.86347 7.83658 4.58183 6.64823 5.60157C5.45987 6.62131 4.53476 7.9124 3.95122 9.36551C3.36767 10.8186 3.14289 12.391 3.29591 13.9494C3.44893 15.5078 3.97524 17.0064 4.83027 18.3182C5.6853 19.6301 6.84387 20.7166 8.20787 21.4857C6.95737 22.3281 5.88691 23.4108 5.05878 24.6708C4.23065 25.9308 3.66139 27.3429 3.38413 28.8249C3.10688 30.307 3.12716 31.8294 3.4438 33.3035C3.76045 34.7777 4.36713 36.1741 5.22853 37.4116C6.08994 38.6491 7.18887 39.7029 8.46136 40.5117C9.73386 41.3204 11.1545 41.868 12.6406 42.1226C14.1268 42.3772 15.6487 42.3336 17.1178 41.9945C18.5869 41.6554 19.974 41.0274 21.1981 40.1472C21.4884 42.6174 22.7121 44.8831 24.6185 46.4805C26.525 48.0779 28.97 48.886 31.4528 48.7394C33.9357 48.5927 36.2686 47.5025 37.9738 45.6918C39.679 43.8812 40.6274 41.4871 40.625 38.9999C40.625 38.8017 40.6071 38.6099 40.5957 38.4149C41.2981 38.7577 42.0638 38.9515 42.8447 38.9841C43.6256 39.0167 44.4048 38.8874 45.1333 38.6044C45.8618 38.3213 46.5239 37.8906 47.0779 37.3393C47.6319 36.788 48.0659 36.1281 48.3525 35.401C48.6392 34.6739 48.7723 33.8953 48.7436 33.1143C48.7148 32.3332 48.5248 31.5666 48.1855 30.8625C47.8462 30.1585 47.3649 29.5322 46.7718 29.0231C46.1788 28.5141 45.4868 28.1332 44.7395 27.9044ZM34.125 6.49994C36.3748 6.49994 38.574 7.16708 40.4446 8.41698C42.3152 9.66688 43.7732 11.4434 44.6341 13.5219C45.4951 15.6004 45.7203 17.8876 45.2814 20.0941C44.8425 22.3006 43.7592 24.3275 42.1683 25.9183C40.5775 27.5091 38.5507 28.5925 36.3441 29.0314C34.1376 29.4703 31.8505 29.245 29.772 28.3841C27.6935 27.5231 25.9169 26.0652 24.667 24.1946C23.4171 22.3239 22.75 20.1247 22.75 17.8749C22.7534 14.8592 23.953 11.9679 26.0855 9.83541C28.2179 7.70292 31.1092 6.50339 34.125 6.49994ZM13 6.49994C14.2856 6.49994 15.5423 6.88116 16.6112 7.59539C17.6801 8.30962 18.5132 9.32478 19.0052 10.5125C19.4972 11.7002 19.6259 13.0072 19.3751 14.268C19.1243 15.5289 18.5052 16.6871 17.5962 17.5961C16.6871 18.5052 15.529 19.1242 14.2681 19.375C13.0072 19.6259 11.7003 19.4971 10.5126 19.0052C9.32483 18.5132 8.30967 17.6801 7.59544 16.6112C6.88121 15.5422 6.5 14.2855 6.5 12.9999C6.50215 11.2767 7.18766 9.62465 8.40618 8.40613C9.6247 7.1876 11.2767 6.50209 13 6.49994ZM30.875 45.4999C29.5894 45.4999 28.3327 45.1187 27.2638 44.4045C26.1949 43.6903 25.3617 42.6751 24.8698 41.4874C24.3778 40.2997 24.2491 38.9927 24.4999 37.7319C24.7507 36.471 25.3698 35.3128 26.2788 34.4038C27.1878 33.4947 28.346 32.8756 29.6069 32.6248C30.8678 32.374 32.1747 32.5028 33.3624 32.9947C34.5502 33.4867 35.5653 34.3198 36.2795 35.3887C36.9938 36.4577 37.375 37.7144 37.375 38.9999C37.3728 40.7232 36.6873 42.3752 35.4688 43.5938C34.2503 44.8123 32.5982 45.4978 30.875 45.4999Z" fill="white"/>
</svg>
