<svg width="50" height="50" viewBox="0 0 50 50" fill="none" xmlns="http://www.w3.org/2000/svg">
<circle cx="25" cy="25" r="18" fill="white"/>
<path fill-rule="evenodd" clip-rule="evenodd" d="M25 50C11.1922 50 0 38.8078 0 25C0 11.1922 11.1922 0 25 0C38.8078 0 50 11.1922 50 25C50 38.8078 38.8078 50 25 50ZM16.3781 26.4V37.5H26.6109C28.5016 37.5 30.1375 37.1719 31.5203 36.5203C32.9031 35.8656 34.0312 34.9734 34.9078 33.8406C35.7828 32.7094 36.4344 31.3844 36.8609 29.8672C37.2875 28.35 37.5 26.7266 37.5 25C37.5107 23.3559 37.2952 21.7181 36.8594 20.1328C36.4344 18.6172 35.7828 17.2906 34.9062 16.1594C34.0312 15.0266 32.9031 14.1344 31.5203 13.4797C30.1375 12.8281 28.5 12.5 26.6094 12.5H16.3766V22.8281H14.0625V26.4H16.3781ZM20.7 22.8297V16.0719H24.9516C26.6344 16.0719 28.0109 16.2984 29.0828 16.7547C30.1547 17.2094 30.9953 17.8391 31.6063 18.6453C32.2311 19.4837 32.6565 20.4537 32.85 21.4813C33.0687 22.5672 33.1781 23.7391 33.1781 25C33.1857 26.1809 33.0757 27.3596 32.85 28.5188C32.6312 29.6047 32.2172 30.55 31.6063 31.3547C30.9953 32.1609 30.1531 32.7906 29.0828 33.2453C28.0109 33.7016 26.6344 33.9281 24.9516 33.9281H20.7V26.4H27.4406V22.8297H20.7Z" fill="#F1A132"/>
</svg>
