<svg width="18" height="21" viewBox="0 0 18 21" fill="none" xmlns="http://www.w3.org/2000/svg">
<path d="M17.959 6.36999V6.28999L17.8984 6.13999C17.8773 6.10816 17.8537 6.07806 17.8277 6.04999C17.8007 6.00765 17.7703 5.96753 17.7368 5.92999L17.6459 5.85999L17.4842 5.77999L9.90778 1.14999C9.74723 1.05066 9.56171 0.997986 9.37238 0.997986C9.18304 0.997986 8.99752 1.05066 8.83697 1.14999L1.32113 5.77999L1.23021 5.85999L1.1393 5.92999C1.10581 5.96753 1.07541 6.00765 1.04838 6.04999C1.02241 6.07806 0.998761 6.10816 0.977665 6.13999L0.917054 6.28999V6.36999C0.907125 6.45638 0.907125 6.5436 0.917054 6.62999V15.37C0.91671 15.5399 0.960124 15.7072 1.0432 15.8559C1.12627 16.0046 1.24626 16.1299 1.39184 16.22L8.9683 20.85C9.01493 20.8785 9.0662 20.8988 9.11983 20.91H9.20064C9.37155 20.9636 9.55504 20.9636 9.72594 20.91H9.80676C9.86039 20.8988 9.91165 20.8785 9.95829 20.85L17.4842 16.22C17.6298 16.1299 17.7498 16.0046 17.8329 15.8559C17.916 15.7072 17.9594 15.5399 17.959 15.37V6.62999C17.969 6.5436 17.969 6.45638 17.959 6.36999ZM8.39249 18.21L2.83642 14.81V8.42999L8.39249 11.82V18.21ZM9.40268 10.09L3.7456 6.62999L9.40268 3.17999L15.0598 6.62999L9.40268 10.09ZM15.9689 14.81L10.4129 18.21V11.82L15.9689 8.42999V14.81Z" fill="#F1A132"/>
</svg>
