<svg width="25" height="24" viewBox="0 0 25 24" fill="none" xmlns="http://www.w3.org/2000/svg">
<path d="M14.3466 11H13.3364V7H15.3568C15.6247 7 15.8816 7.10536 16.0711 7.29289C16.2605 7.48043 16.367 7.73478 16.367 8C16.367 8.26522 16.4734 8.51957 16.6628 8.70711C16.8523 8.89464 17.1092 9 17.3772 9C17.6451 9 17.902 8.89464 18.0915 8.70711C18.2809 8.51957 18.3874 8.26522 18.3874 8C18.3874 7.20435 18.0681 6.44129 17.4997 5.87868C16.9314 5.31607 16.1605 5 15.3568 5H13.3364V3C13.3364 2.73478 13.23 2.48043 13.0405 2.29289C12.8511 2.10536 12.5941 2 12.3262 2C12.0583 2 11.8013 2.10536 11.6119 2.29289C11.4224 2.48043 11.316 2.73478 11.316 3V5H10.3058C9.23412 5 8.20634 5.42143 7.44855 6.17157C6.69075 6.92172 6.26503 7.93913 6.26503 9C6.26503 10.0609 6.69075 11.0783 7.44855 11.8284C8.20634 12.5786 9.23412 13 10.3058 13H11.316V17H9.29561C9.02769 17 8.77074 16.8946 8.5813 16.7071C8.39185 16.5196 8.28542 16.2652 8.28542 16C8.28542 15.7348 8.17899 15.4804 7.98954 15.2929C7.80009 15.1054 7.54314 15 7.27522 15C7.0073 15 6.75036 15.1054 6.56091 15.2929C6.37146 15.4804 6.26503 15.7348 6.26503 16C6.26503 16.7956 6.58432 17.5587 7.15267 18.1213C7.72101 18.6839 8.49185 19 9.29561 19H11.316V21C11.316 21.2652 11.4224 21.5196 11.6119 21.7071C11.8013 21.8946 12.0583 22 12.3262 22C12.5941 22 12.8511 21.8946 13.0405 21.7071C13.23 21.5196 13.3364 21.2652 13.3364 21V19H14.3466C15.4183 19 16.446 18.5786 17.2038 17.8284C17.9616 17.0783 18.3874 16.0609 18.3874 15C18.3874 13.9391 17.9616 12.9217 17.2038 12.1716C16.446 11.4214 15.4183 11 14.3466 11ZM11.316 11H10.3058C9.76996 11 9.25607 10.7893 8.87718 10.4142C8.49828 10.0391 8.28542 9.53043 8.28542 9C8.28542 8.46957 8.49828 7.96086 8.87718 7.58579C9.25607 7.21071 9.76996 7 10.3058 7H11.316V11ZM14.3466 17H13.3364V13H14.3466C14.8824 13 15.3963 13.2107 15.7752 13.5858C16.1541 13.9609 16.367 14.4696 16.367 15C16.367 15.5304 16.1541 16.0391 15.7752 16.4142C15.3963 16.7893 14.8824 17 14.3466 17Z" fill="white"/>
</svg>
