<svg width="22" height="18" viewBox="0 0 22 18" fill="none" xmlns="http://www.w3.org/2000/svg">
<path d="M21.5 8.25H11V1.5C10.9996 1.1023 10.8414 0.720997 10.5602 0.439779C10.279 0.15856 9.8977 0.000397108 9.5 0H3.5C3.1023 0.000397108 2.721 0.15856 2.43978 0.439779C2.15856 0.720997 2.0004 1.1023 2 1.5V8.25H0.5V9.75H11V16.5C11.0004 16.8977 11.1586 17.279 11.4398 17.5602C11.721 17.8414 12.1023 17.9996 12.5 18H18.5C18.8977 17.9996 19.279 17.8414 19.5602 17.5602C19.8414 17.279 19.9996 16.8977 20 16.5V9.75H21.5V8.25ZM3.5 1.5H9.5V8.25H3.5V1.5ZM18.5 16.5H12.5V9.75H18.5V16.5Z" fill="white"/>
</svg>
