<svg width="52" height="52" viewBox="0 0 52 52" fill="none" xmlns="http://www.w3.org/2000/svg">
<path d="M11.375 8.46619C11.1151 8.46288 10.8627 8.37873 10.6529 8.22543C10.443 8.07213 10.2861 7.85728 10.2039 7.61073C10.1217 7.36417 10.1183 7.09814 10.1943 6.84958C10.2702 6.60102 10.4216 6.38227 10.6275 6.22369C15.1112 3.0516 20.5109 1.43626 26 1.62494C30.3225 1.62494 36.53 2.35619 41.4375 5.88244C41.7059 6.07498 41.8872 6.36583 41.942 6.69155C41.9968 7.01727 41.9206 7.35144 41.73 7.62119C41.5321 7.88809 41.2372 8.06659 40.909 8.11826C40.5808 8.16993 40.2454 8.09063 39.975 7.89744C35.8077 5.24903 30.9343 3.92868 26 4.11119C21.0738 3.94383 16.2265 5.38092 12.1875 8.20619C11.9575 8.38925 11.6685 8.48174 11.375 8.46619Z" fill="white"/>
<path d="M45.8737 19.9225C45.6728 19.9207 45.4752 19.8711 45.2972 19.7778C45.1192 19.6846 44.9659 19.5504 44.85 19.3862C42.0387 15.4212 37.0175 10.14 26 10.14C22.3368 10.0477 18.7055 10.8417 15.4151 12.4544C12.1247 14.0671 9.27253 16.4507 7.10125 19.4025C6.90626 19.6683 6.61425 19.8464 6.28868 19.8981C5.9631 19.9499 5.63027 19.871 5.3625 19.6787C5.22203 19.581 5.10341 19.4551 5.01416 19.3091C4.92492 19.163 4.86701 19.0001 4.84409 18.8305C4.82117 18.6609 4.83375 18.4883 4.88103 18.3239C4.92831 18.1594 5.00926 18.0065 5.11875 17.875C7.52594 14.6231 10.6792 11.9972 14.3132 10.2184C17.9471 8.43967 21.9552 7.56008 26 7.65374C35.1162 7.65374 41.9412 11.0337 46.865 17.9562C47.054 18.228 47.1276 18.5635 47.0697 18.8894C47.0118 19.2153 46.8272 19.5049 46.5562 19.695C46.3551 19.8343 46.1183 19.9133 45.8737 19.9225Z" fill="white"/>
<path d="M19.955 50.375C19.7029 50.3737 19.4569 50.2972 19.2485 50.1554C19.0401 50.0136 18.8787 49.8128 18.785 49.5788C18.72 49.4257 18.6871 49.2609 18.6881 49.0946C18.6892 48.9283 18.7244 48.764 18.7913 48.6118C18.8583 48.4595 18.9557 48.3226 19.0776 48.2095C19.1995 48.0963 19.3432 48.0093 19.5 47.9538C26.6012 45.2238 30.875 39.6338 30.875 32.9875C30.9235 32.3349 30.8307 31.6795 30.6029 31.066C30.3751 30.4525 30.0176 29.8954 29.5549 29.4327C29.0921 28.9699 28.535 28.6124 27.9215 28.3846C27.308 28.1568 26.6526 28.064 26 28.1125C22.9775 28.1125 21.515 29.7375 21.125 33.5563C20.9436 35.3423 20.0771 36.9886 18.7074 38.1492C17.3378 39.3098 15.5716 39.8943 13.78 39.78C12.8165 39.794 11.8607 39.6072 10.9734 39.2315C10.0861 38.8557 9.28678 38.2993 8.62638 37.5976C7.96598 36.8959 7.45896 36.0644 7.13762 35.156C6.81629 34.2475 6.68768 33.2821 6.75999 32.3213C6.84979 27.2971 8.92321 22.5124 12.5278 19.0114C16.1323 15.5104 20.9754 13.5772 26 13.6338C31.1521 13.6337 36.0948 15.6725 39.7485 19.3049C43.4022 22.9373 45.4699 27.868 45.5 33.02C45.3853 36.6477 44.6202 40.2252 43.2412 43.5825C43.1089 43.8819 42.8657 44.1185 42.5628 44.2427C42.2599 44.3669 41.9207 44.3691 41.6162 44.2488C41.4652 44.1866 41.328 44.095 41.2126 43.9794C41.0972 43.8638 41.0059 43.7265 40.9439 43.5754C40.8819 43.4242 40.8506 43.2623 40.8516 43.099C40.8527 42.9356 40.8861 42.7741 40.95 42.6238C42.1978 39.569 42.8965 36.3178 43.0137 33.02C42.9922 28.5248 41.1892 24.2215 37.9999 21.0535C34.8106 17.8855 30.4953 16.1114 26 16.12C23.8248 16.077 21.6625 16.4634 19.6369 17.2572C17.6112 18.0509 15.7621 19.2365 14.1952 20.7459C12.6284 22.2554 11.3748 24.0591 10.506 26.0537C9.63729 28.0483 9.17054 30.1947 9.13249 32.37C9.06589 33.0022 9.13395 33.6414 9.33221 34.2454C9.53047 34.8494 9.85442 35.4046 10.2827 35.8744C10.7111 36.3441 11.234 36.7179 11.8172 36.9709C12.4004 37.224 13.0306 37.3506 13.6662 37.3425C14.2514 37.4007 14.8424 37.3424 15.4049 37.1709C15.9674 36.9995 16.4904 36.7183 16.9437 36.3436C17.397 35.9689 17.7715 35.5081 18.0457 34.9879C18.3199 34.4676 18.4883 33.8982 18.5412 33.3125C19.1262 28.2588 21.6125 25.6913 25.9512 25.6913C26.9345 25.6416 27.9172 25.7997 28.8352 26.1554C29.7532 26.5111 30.5859 27.0564 31.279 27.7556C31.9721 28.4548 32.5099 29.2922 32.8575 30.2134C33.2051 31.1345 33.3546 32.1185 33.2962 33.1013C33.2962 40.8038 28.4212 47.2713 20.2962 50.375C20.1829 50.3881 20.0684 50.3881 19.955 50.375Z" fill="white"/>
<path d="M32.1263 49.2051C31.815 49.2001 31.5156 49.0849 31.2813 48.8801C31.1653 48.7653 31.0733 48.6286 31.0104 48.478C30.9476 48.3273 30.9153 48.1658 30.9153 48.0026C30.9153 47.8394 30.9476 47.6778 31.0104 47.5272C31.0733 47.3766 31.1653 47.2399 31.2813 47.1251C34.9372 43.3354 36.9967 38.2856 37.0338 33.0201C37.0338 30.4851 36.2538 22.2138 26.1463 22.2138C24.6735 22.162 23.2051 22.4041 21.8269 22.9258C20.4486 23.4475 19.1881 24.2385 18.1188 25.2526C17.162 26.1992 16.4057 27.3287 15.8948 28.5739C15.3838 29.819 15.1289 31.1543 15.145 32.5001C15.1407 32.8291 15.007 33.1432 14.7728 33.3744C14.5386 33.6055 14.2228 33.7351 13.8938 33.7351C13.7302 33.7372 13.5679 33.7069 13.4161 33.6458C13.2644 33.5847 13.1264 33.4941 13.01 33.3792C12.8935 33.2643 12.8011 33.1274 12.738 32.9765C12.675 32.8256 12.6425 32.6636 12.6425 32.5001C12.6172 30.8353 12.9231 29.1821 13.5424 27.6366C14.1617 26.0911 15.0821 24.6842 16.25 23.4976C17.5446 22.255 19.0732 21.2819 20.7469 20.6347C22.4206 19.9875 24.2062 19.6792 26 19.7276C35.88 19.7276 39.39 26.8776 39.39 33.0201C39.3688 38.8813 37.1005 44.5112 33.0525 48.7501C32.9408 48.8891 32.8 49.0018 32.6399 49.0805C32.4799 49.1591 32.3045 49.2016 32.1263 49.2051Z" fill="white"/>
<path d="M14.0725 45.0776C13.2254 45.0756 12.3791 45.0268 11.5375 44.9314C11.3721 44.9172 11.2112 44.8701 11.0643 44.7928C10.9175 44.7155 10.7875 44.6096 10.6823 44.4812C10.577 44.3529 10.4985 44.2048 10.4513 44.0457C10.4042 43.8865 10.3894 43.7195 10.4079 43.5546C10.4263 43.3896 10.4776 43.23 10.5588 43.0852C10.6399 42.9404 10.7492 42.8133 10.8802 42.7114C11.0112 42.6095 11.1613 42.5349 11.3217 42.492C11.482 42.449 11.6493 42.4386 11.8137 42.4614C15.86 42.9164 19.045 42.2014 21.3037 40.3164C22.3449 39.3853 23.1869 38.2531 23.7789 36.988C24.371 35.7229 24.7009 34.3511 24.7487 32.9551C24.7568 32.7906 24.7981 32.6293 24.8702 32.4812C24.9423 32.3331 25.0437 32.2011 25.1683 32.0933C25.2928 31.9854 25.4379 31.904 25.5949 31.8538C25.7518 31.8036 25.9172 31.7858 26.0812 31.8014C26.4088 31.8263 26.7139 31.9776 26.9322 32.2231C27.1504 32.4687 27.2648 32.7894 27.2512 33.1176C27.1828 34.8557 26.7614 36.5616 26.0127 38.1316C25.264 39.7016 24.2037 41.1029 22.8962 42.2501C20.3879 44.2178 17.2573 45.221 14.0725 45.0776Z" fill="white"/>
</svg>
