<svg width="28" height="28" viewBox="0 0 28 28" fill="none" xmlns="http://www.w3.org/2000/svg">
<path d="M19.25 14.875H21V16.625H19.25V14.875Z" fill="#F1A132"/>
<path d="M24.5 7H3.5V4.375H22.75V2.625H3.5C3.03587 2.625 2.59075 2.80937 2.26256 3.13756C1.93437 3.46575 1.75 3.91087 1.75 4.375V22.75C1.75 23.2141 1.93437 23.6592 2.26256 23.9874C2.59075 24.3156 3.03587 24.5 3.5 24.5H24.5C24.9641 24.5 25.4092 24.3156 25.7374 23.9874C26.0656 23.6592 26.25 23.2141 26.25 22.75V8.75C26.25 8.28587 26.0656 7.84075 25.7374 7.51256C25.4092 7.18437 24.9641 7 24.5 7ZM3.5 22.75V8.75H24.5V11.375H17.5C17.0359 11.375 16.5908 11.5594 16.2626 11.8876C15.9344 12.2158 15.75 12.6609 15.75 13.125V18.375C15.75 18.8391 15.9344 19.2842 16.2626 19.6124C16.5908 19.9406 17.0359 20.125 17.5 20.125H24.5V22.75H3.5ZM24.5 13.125V18.375H17.5V13.125H24.5Z" fill="#F1A132"/>
</svg>
