<svg width="52" height="52" viewBox="0 0 52 52" fill="none" xmlns="http://www.w3.org/2000/svg">
<path d="M22.75 6.5C24.9998 6.5 27.199 7.16713 29.0696 8.41703C30.9402 9.66693 32.3982 11.4435 33.2591 13.522C34.1201 15.6005 34.3453 17.8876 33.9064 20.0942C33.4675 22.3007 32.3842 24.3275 30.7933 25.9183C29.2025 27.5092 27.1757 28.5925 24.9692 29.0314C22.7626 29.4703 20.4755 29.2451 18.397 28.3841C16.3185 27.5232 14.5419 26.0652 13.292 24.1946C12.0421 22.324 11.375 20.1248 11.375 17.875C11.375 14.8582 12.5734 11.9649 14.7067 9.83166C16.8399 7.69843 19.7332 6.5 22.75 6.5ZM22.75 3.25C19.8575 3.25 17.0299 4.10774 14.6248 5.71476C12.2197 7.32177 10.3452 9.60589 9.23827 12.2783C8.13134 14.9506 7.84171 17.8912 8.40602 20.7282C8.97033 23.5652 10.3632 26.1711 12.4086 28.2164C14.4539 30.2618 17.0598 31.6547 19.8968 32.219C22.7338 32.7833 25.6744 32.4937 28.3468 31.3867C31.0191 30.2798 33.3032 28.4053 34.9103 26.0002C36.5173 23.5951 37.375 20.7675 37.375 17.875C37.375 13.9962 35.8342 10.2763 33.0914 7.53356C30.3487 4.79084 26.6288 3.25 22.75 3.25Z" fill="white"/>
<path d="M45.5 17.875C45.502 14.8876 44.9137 11.9292 43.769 9.16981C42.6242 6.4104 40.9455 3.90437 38.8294 1.79565L36.53 4.09503C40.1811 7.74454 42.2351 12.6935 42.2415 17.8557C42.2478 23.018 40.2059 27.972 36.5638 31.6304C32.9217 35.2889 27.9769 37.353 22.8147 37.3698C17.6524 37.3866 12.6943 35.3547 9.02851 31.72L8.96676 31.6583L6.66901 33.956C8.77805 36.0721 11.2844 37.7506 14.0441 38.895C16.8038 40.0395 19.7624 40.6274 22.75 40.625V45.5H16.25V48.75H32.5V45.5H26V40.365C31.4085 39.581 36.3546 36.8775 39.9347 32.7484C43.5149 28.6193 45.4902 23.3401 45.5 17.875Z" fill="white"/>
</svg>
