<svg width="48" height="48" viewBox="0 0 48 48" fill="none" xmlns="http://www.w3.org/2000/svg">
<path d="M24 21.6667C23.3812 21.6667 22.7877 21.9125 22.3501 22.3501C21.9125 22.7877 21.6667 23.3812 21.6667 24V31C21.6667 31.6189 21.9125 32.2123 22.3501 32.6499C22.7877 33.0875 23.3812 33.3334 24 33.3334C24.6188 33.3334 25.2123 33.0875 25.6499 32.6499C26.0875 32.2123 26.3333 31.6189 26.3333 31V24C26.3333 23.3812 26.0875 22.7877 25.6499 22.3501C25.2123 21.9125 24.6188 21.6667 24 21.6667ZM24 14.6667C23.5385 14.6667 23.0874 14.8035 22.7037 15.0599C22.32 15.3163 22.0209 15.6807 21.8443 16.1071C21.6677 16.5335 21.6215 17.0026 21.7115 17.4552C21.8015 17.9079 22.0238 18.3236 22.3501 18.6499C22.6764 18.9763 23.0922 19.1985 23.5448 19.2885C23.9974 19.3786 24.4666 19.3323 24.8929 19.1557C25.3193 18.9791 25.6837 18.6801 25.9401 18.2964C26.1965 17.9126 26.3333 17.4615 26.3333 17C26.3333 16.3812 26.0875 15.7877 25.6499 15.3501C25.2123 14.9125 24.6188 14.6667 24 14.6667ZM24 0.666687C20.9358 0.666687 17.9017 1.27022 15.0707 2.44283C12.2398 3.61544 9.66755 5.33416 7.50085 7.50086C3.125 11.8767 0.666675 17.8116 0.666675 24C0.646276 29.388 2.51186 34.6133 5.94001 38.77L1.27334 43.4367C0.949573 43.7648 0.730249 44.1815 0.643043 44.6341C0.555836 45.0868 0.604656 45.5551 0.783341 45.98C0.977143 46.3999 1.29132 46.7526 1.68598 46.9936C2.08065 47.2345 2.53801 47.3528 3.00001 47.3334H24C30.1884 47.3334 36.1233 44.875 40.4992 40.4992C44.875 36.1233 47.3333 30.1884 47.3333 24C47.3333 17.8116 44.875 11.8767 40.4992 7.50086C36.1233 3.12501 30.1884 0.666687 24 0.666687ZM24 42.6667H8.62334L10.7933 40.4967C11.0138 40.2806 11.1892 40.0229 11.3094 39.7385C11.4295 39.4541 11.4921 39.1487 11.4933 38.84C11.4846 38.2246 11.233 37.6375 10.7933 37.2067C7.73804 34.1548 5.83541 30.1379 5.40962 25.8405C4.98383 21.5431 6.06121 17.231 8.4582 13.6389C10.8552 10.0468 14.4235 7.39686 18.5552 6.14062C22.6869 4.88439 27.1263 5.09957 31.1172 6.74949C35.108 8.39941 38.4033 11.382 40.4417 15.1891C42.4801 18.9962 43.1354 23.3923 42.296 27.6284C41.4566 31.8645 39.1744 35.6785 35.8383 38.4206C32.5021 41.1627 28.3185 42.6633 24 42.6667Z" fill="#F1A132"/>
</svg>
