<svg width="28" height="28" viewBox="0 0 28 28" fill="none" xmlns="http://www.w3.org/2000/svg">
<path d="M24.5 5.25V22.75H3.5V5.25H24.5ZM24.5 3.5H3.5C3.03587 3.5 2.59075 3.68437 2.26256 4.01256C1.93437 4.34075 1.75 4.78587 1.75 5.25V22.75C1.75 23.2141 1.93437 23.6592 2.26256 23.9874C2.59075 24.3156 3.03587 24.5 3.5 24.5H24.5C24.9641 24.5 25.4092 24.3156 25.7374 23.9874C26.0656 23.6592 26.25 23.2141 26.25 22.75V5.25C26.25 4.78587 26.0656 4.34075 25.7374 4.01256C25.4092 3.68437 24.9641 3.5 24.5 3.5Z" fill="#F1A132"/>
<path d="M5.25 8.75H11.375V10.5H5.25V8.75Z" fill="#F1A132"/>
<path d="M5.25 12.25H8.75V14H5.25V12.25Z" fill="#F1A132"/>
<path d="M20.125 15.75H14.875C14.1788 15.75 13.5111 16.0266 13.0188 16.5188C12.5266 17.0111 12.25 17.6788 12.25 18.375V20.125H14V18.375C14 18.1429 14.0922 17.9204 14.2563 17.7563C14.4204 17.5922 14.6429 17.5 14.875 17.5H20.125C20.3571 17.5 20.5796 17.5922 20.7437 17.7563C20.9078 17.9204 21 18.1429 21 18.375V20.125H22.75V18.375C22.75 17.6788 22.4734 17.0111 21.9812 16.5188C21.4889 16.0266 20.8212 15.75 20.125 15.75Z" fill="#F1A132"/>
<path d="M17.5 14.875C18.1922 14.875 18.8689 14.6697 19.4445 14.2851C20.0201 13.9006 20.4687 13.3539 20.7336 12.7144C20.9985 12.0749 21.0678 11.3711 20.9327 10.6922C20.7977 10.0133 20.4644 9.38961 19.9749 8.90013C19.4854 8.41064 18.8617 8.0773 18.1828 7.94225C17.5039 7.8072 16.8001 7.87652 16.1606 8.14142C15.5211 8.40633 14.9744 8.85493 14.5899 9.43051C14.2053 10.0061 14 10.6828 14 11.375C14 12.3033 14.3687 13.1935 15.0251 13.8499C15.6815 14.5063 16.5717 14.875 17.5 14.875ZM17.5 9.625C17.8461 9.625 18.1845 9.72764 18.4722 9.91993C18.76 10.1122 18.9843 10.3855 19.1168 10.7053C19.2492 11.0251 19.2839 11.3769 19.2164 11.7164C19.1489 12.0559 18.9822 12.3677 18.7374 12.6124C18.4927 12.8572 18.1809 13.0239 17.8414 13.0914C17.5019 13.1589 17.1501 13.1242 16.8303 12.9918C16.5105 12.8593 16.2372 12.635 16.0449 12.3472C15.8526 12.0595 15.75 11.7211 15.75 11.375C15.75 10.9109 15.9344 10.4658 16.2626 10.1376C16.5908 9.80938 17.0359 9.625 17.5 9.625Z" fill="#F1A132"/>
</svg>
