<svg width="39" height="39" viewBox="0 0 39 39" fill="none" xmlns="http://www.w3.org/2000/svg">
<path d="M20.7188 26.8125V17.0625H15.8438V19.5H18.2812V26.8125H14.625V29.25H24.375V26.8125H20.7188Z" fill="#F1A132"/>
<path d="M19.5 9.75C19.1384 9.75 18.785 9.85722 18.4843 10.0581C18.1837 10.259 17.9494 10.5445 17.811 10.8785C17.6727 11.2126 17.6365 11.5802 17.707 11.9348C17.7775 12.2894 17.9517 12.6151 18.2073 12.8708C18.463 13.1265 18.7887 13.3006 19.1434 13.3711C19.498 13.4417 19.8655 13.4055 20.1996 13.2671C20.5336 13.1287 20.8192 12.8944 21.02 12.5938C21.2209 12.2931 21.3281 11.9397 21.3281 11.5781C21.3281 11.0933 21.1355 10.6283 20.7927 10.2854C20.4498 9.94261 19.9848 9.75 19.5 9.75Z" fill="#F1A132"/>
<path d="M19.5 36.5625C16.1254 36.5625 12.8265 35.5618 10.0206 33.687C7.21468 31.8121 5.02773 29.1473 3.73631 26.0295C2.44489 22.9118 2.107 19.4811 2.76536 16.1713C3.42372 12.8615 5.04876 9.82123 7.435 7.435C9.82123 5.04876 12.8615 3.42372 16.1713 2.76536C19.4811 2.107 22.9118 2.44489 26.0295 3.73631C29.1473 5.02773 31.8121 7.21468 33.687 10.0206C35.5618 12.8265 36.5625 16.1254 36.5625 19.5C36.5625 24.0253 34.7649 28.3652 31.565 31.565C28.3652 34.7649 24.0253 36.5625 19.5 36.5625ZM19.5 4.87501C16.6075 4.87501 13.7799 5.73275 11.3748 7.33976C8.96972 8.94678 7.0952 11.2309 5.98827 13.9033C4.88134 16.5756 4.59171 19.5162 5.15602 22.3532C5.72033 25.1902 7.11323 27.7961 9.15857 29.8414C11.2039 31.8868 13.8098 33.2797 16.6468 33.844C19.4838 34.4083 22.4244 34.1187 25.0968 33.0117C27.7691 31.9048 30.0532 30.0303 31.6602 27.6252C33.2673 25.2202 34.125 22.3926 34.125 19.5C34.125 15.6212 32.5842 11.9013 29.8414 9.15857C27.0987 6.41585 23.3788 4.87501 19.5 4.87501Z" fill="#F1A132"/>
</svg>
