<svg width="229" height="73" viewBox="0 0 229 73" fill="none" xmlns="http://www.w3.org/2000/svg">
<path d="M35.3939 50.1079C29.8909 50.1079 11.2321 50.456 1 18.9361V72.5256H228V26.527C219.284 36.86 214.498 30.3538 209.052 26.527L204.268 18.9361C199.389 14.8438 190.855 0.933618 176.035 24.4746C163.541 48.5403 150.347 38.7377 146.372 28.8773C141.615 0.188888 130.665 -8.46734 118.857 12.9034C114.102 27.1337 104.915 49.4258 94.5515 30.8014C84.1322 6.86825 72.1955 8.92607 64.0664 21.7054C50.1833 52.4581 40.897 50.1079 35.3939 50.1079Z" fill="url(#paint0_linear)"/>
<path d="M1.37399 18.9286C11.5723 50.4353 30.1697 50.0874 35.6546 50.0874C40.9882 50.0874 49.8875 52.3088 63.0979 24.1658C63.864 22.5337 64.6866 20.9087 65.7683 19.4664C73.7916 8.76805 84.8706 8.33618 94.6173 30.7889C104.181 48.0258 112.74 30.2011 117.717 16.174C118.489 14.0001 119.377 11.8444 120.614 9.89755C131.118 -6.63165 140.712 0.749308 145.518 24.7545C146.062 27.4693 146.675 30.237 148.2 32.5478C153.557 40.6643 164.96 45.4663 175.832 24.4648C188.079 4.95527 196.019 11.1788 201.147 16.2072C203.005 18.0291 204.677 20.0504 206.062 22.2537V22.2537C207.83 25.0674 210.063 27.6043 212.742 29.5699C216.786 32.5363 221.101 34.2739 227.626 26.5163" stroke="#F1A132" stroke-width="2" stroke-linecap="round"/>
<defs>
<linearGradient id="paint0_linear" x1="114.5" y1="1" x2="114.5" y2="72.5256" gradientUnits="userSpaceOnUse">
<stop stop-color="#FAAF6A" stop-opacity="0.14"/>
<stop offset="1" stop-color="white" stop-opacity="0"/>
</linearGradient>
</defs>
</svg>
