<svg width="40" height="46" viewBox="0 0 40 46" fill="none" xmlns="http://www.w3.org/2000/svg">
<path d="M34.2844 7.48846L20.3128 45.248L6.34506 7.4923C8.04526 9.4933 10.1792 11.1042 12.5944 12.21C15.0095 13.3157 17.6461 13.8889 20.3157 13.8885C22.9852 13.8882 25.6217 13.3142 28.0366 12.2079C30.4514 11.1014 32.5849 9.48989 34.2844 7.48846Z" fill="#FAAF6A" fill-opacity="0.81"/>
<g style="mix-blend-mode:multiply" opacity="0.08">
<g style="mix-blend-mode:multiply" opacity="0.08">
<path d="M34.2844 7.48846L20.3128 45.248L6.34506 7.4923C8.04259 9.49555 10.1756 11.1081 12.5908 12.2141C15.0059 13.3201 17.6431 13.8919 20.3128 13.8885C15.2584 13.8885 12.4707 13.2982 10.9507 12.7151L20.3128 42.5728L29.8771 12.6341C28.4083 13.2402 25.597 13.8885 20.3128 13.8885C22.9834 13.8916 25.6215 13.3193 28.0373 12.2126C30.4531 11.106 32.5867 9.49262 34.2844 7.48846Z" fill="black"/>
</g>
</g>
<path d="M37.2696 22.8137L20.3125 45.248L21.5273 41.9667C21.5317 41.9584 21.5344 41.9492 21.5352 41.9399L34.2842 7.48851L34.7128 6.32282L36.9441 0.297294L37.0392 0.0426786L37.0555 0L37.0634 0.0479539L37.1231 0.329422L37.4565 1.98566L38.7625 8.43602C38.7632 8.45415 38.7658 8.47213 38.7704 8.48973L39.6089 12.6241C39.7564 13.349 39.8375 14.0852 39.851 14.8241C39.9256 17.6919 39.0175 20.5024 37.2696 22.8137Z" fill="#FAAF6A"/>
<g style="mix-blend-mode:screen" opacity="0.25">
<g style="mix-blend-mode:screen" opacity="0.25">
<path d="M38.4487 10.8853L22.9086 40.5076L35.0302 7.75078L35.4588 6.58126L36.8285 2.88904L38.4487 10.8853Z" fill="white"/>
</g>
</g>
<g style="mix-blend-mode:screen" opacity="0.3">
<g style="mix-blend-mode:screen" opacity="0.3">
<path d="M38.7703 8.48829C38.4448 7.08332 38.1292 5.67452 37.8175 4.2614C37.5437 3.04968 37.2749 1.83749 37.0155 0.62145L35.3386 5.32304L33.4249 10.5804L31.5073 15.8339C30.8721 17.5865 30.2048 19.3276 29.5537 21.0759L27.5937 26.3141C26.9466 28.0629 26.262 29.7996 25.6006 31.5407C24.9259 33.2814 24.269 35.0263 23.5839 36.7597C22.8988 38.4932 22.2261 40.2376 21.5272 41.9667C21.5316 41.9584 21.5343 41.9492 21.5351 41.9399L34.2841 7.48851L34.7127 6.32282L36.944 0.297294C36.9242 0.208585 36.9085 0.119879 36.8887 0.0311693L37.0392 0.0426786L37.0555 0L37.0633 0.0479539L37.2182 0.0594631L37.123 0.329422L37.4564 1.98566L38.7625 8.43602C38.7632 8.45367 38.7659 8.47117 38.7703 8.48829Z" fill="white"/>
</g>
</g>
<g style="mix-blend-mode:multiply" opacity="0.2">
<g style="mix-blend-mode:multiply" opacity="0.2">
<path d="M37.2696 22.8136L20.3125 45.2479C20.9675 44.3019 21.6383 43.3639 22.3056 42.426C22.9729 41.4881 23.6515 40.5559 24.3277 39.6276L26.3647 36.8369L28.4214 34.0614C29.7989 32.2201 31.1834 30.375 32.5782 28.5471L34.6748 25.8028C35.3811 24.8918 36.08 23.9769 36.7956 23.0696L36.7995 23.062L36.8035 23.0581C37.0458 22.7722 37.2713 22.4732 37.4787 22.1624C37.6893 21.8459 37.8876 21.5256 38.0705 21.1938C38.2535 20.862 38.4242 20.5258 38.583 20.1825L38.8054 19.6613C38.8809 19.4877 38.9401 19.3098 39.0077 19.1339C39.0752 18.9579 39.1388 18.7785 39.1946 18.5972C39.2503 18.416 39.3134 18.2386 39.3613 18.0569L39.4999 17.505C39.5482 17.3217 39.5867 17.1363 39.6153 16.9492C39.6469 16.7636 39.6947 16.5785 39.7139 16.3896L39.7815 15.8257C39.8254 15.4939 39.8333 15.162 39.853 14.8259C39.9265 17.6933 39.0178 20.5031 37.2696 22.8136Z" fill="black"/>
</g>
</g>
<path d="M3.35725 22.8137L20.3148 45.2485L19.0996 41.9672C19.0951 41.9589 19.0924 41.9497 19.0917 41.9404L6.34317 7.48851L5.91407 6.32282L3.68277 0.297294L3.58758 0.0426786L3.57179 0L3.5639 0.0479539L3.50422 0.329422L3.17081 1.98566L1.8643 8.43458C1.86361 8.45271 1.86096 8.47069 1.85641 8.48829L1.01795 12.6226C0.870778 13.3476 0.789906 14.0838 0.776279 14.8226C0.701222 17.6909 1.60916 20.502 3.35725 22.8137Z" fill="#FAAF6A"/>
<g style="mix-blend-mode:screen" opacity="0.25">
<g style="mix-blend-mode:screen" opacity="0.25">
<path d="M2.17786 10.8854L17.7179 40.5076L5.5963 7.75128L5.1677 6.58175L3.79805 2.88953L2.17786 10.8854Z" fill="white"/>
</g>
</g>
<g style="mix-blend-mode:screen" opacity="0.3">
<g style="mix-blend-mode:screen" opacity="0.3">
<path d="M1.85611 8.48829C2.18163 7.08332 2.49728 5.67452 2.80899 4.2614C3.08321 3.04984 3.35054 1.83653 3.61095 0.62145L5.28787 5.32304L7.20203 10.5804L9.11963 15.8339C9.75489 17.5865 10.4217 19.3276 11.0727 21.0759L13.0328 26.3141C13.6799 28.0629 14.3644 29.7996 15.0258 31.5407C15.701 33.2814 16.3575 35.0263 17.0431 36.7597C17.7286 38.4932 18.4009 40.2376 19.0993 41.9667C19.0948 41.9584 19.0921 41.9492 19.0914 41.9399L6.34286 7.48851L5.91377 6.32282L3.68246 0.297294C3.70219 0.208585 3.71847 0.119879 3.7382 0.0311693L3.58728 0.0426786L3.5715 0L3.5636 0.0479539L3.40874 0.0594631L3.50393 0.329422L3.17052 1.98566L1.864 8.43458C1.86331 8.45271 1.86067 8.47069 1.85611 8.48829Z" fill="white"/>
</g>
</g>
<g style="mix-blend-mode:multiply" opacity="0.2">
<g style="mix-blend-mode:multiply" opacity="0.2">
<path d="M3.35708 22.8136L20.3147 45.2485C19.6592 44.3024 18.9884 43.3645 18.3216 42.4266C17.6547 41.4886 16.9756 40.5565 16.2994 39.6282L14.263 36.8374L12.2062 34.062C10.8282 32.2207 9.44672 30.3755 8.04897 28.5476L5.95282 25.8034C5.24608 24.8923 4.5472 23.9774 3.83204 23.0702L3.8281 23.0625L3.82415 23.0587C3.58182 22.7729 3.35654 22.4738 3.14944 22.163C2.93884 21.8465 2.74007 21.5262 2.55759 21.1943C2.3751 20.8625 2.20395 20.5264 2.04514 20.1831L1.8232 19.6618C1.74773 19.4882 1.68806 19.3103 1.62049 19.1344C1.55292 18.9584 1.48979 18.779 1.43405 18.5978C1.37832 18.4165 1.3147 18.2391 1.26735 18.0574L1.12826 17.5055C1.07996 17.3223 1.04143 17.1368 1.01285 16.9497C0.981285 16.7641 0.933443 16.5791 0.914208 16.3901L0.846637 15.8262C0.803235 15.4944 0.797318 15.1626 0.775617 14.8264C0.701583 17.6935 1.60966 20.5031 3.35708 22.8136Z" fill="black"/>
</g>
</g>
</svg>
