<svg width="17" height="17" viewBox="0 0 17 17" fill="none" xmlns="http://www.w3.org/2000/svg">
<path d="M3.1875 15.9375H9.5625C9.84421 15.9372 10.1143 15.8252 10.3135 15.626C10.5127 15.4268 10.6247 15.1567 10.625 14.875V13.2812H9.5625V14.875H3.1875V2.125H9.5625V3.71875H10.625V2.125C10.6247 1.84329 10.5127 1.57321 10.3135 1.37401C10.1143 1.17481 9.84421 1.06278 9.5625 1.0625H3.1875C2.90579 1.06278 2.63571 1.17481 2.43651 1.37401C2.23731 1.57321 2.12528 1.84329 2.125 2.125V14.875C2.12528 15.1567 2.23731 15.4268 2.43651 15.626C2.63571 15.8252 2.90579 15.9372 3.1875 15.9375Z" fill="white"/>
<path d="M10.9363 10.9363L12.8414 9.03125H5.3125V7.96875H12.8414L10.9363 6.06369L11.6875 5.3125L14.875 8.5L11.6875 11.6875L10.9363 10.9363Z" fill="white"/>
</svg>
