<svg width="21" height="20" viewBox="0 0 21 20" fill="none" xmlns="http://www.w3.org/2000/svg">
<path d="M19.9562 18H18.946V3C18.946 2.73478 18.8395 2.48043 18.6501 2.29289C18.4606 2.10536 18.2037 2 17.9358 2C17.6679 2 17.4109 2.10536 17.2215 2.29289C17.032 2.48043 16.9256 2.73478 16.9256 3V18H14.9052V11C14.9052 10.7348 14.7988 10.4804 14.6093 10.2929C14.4199 10.1054 14.1629 10 13.895 10C13.6271 10 13.3701 10.1054 13.1807 10.2929C12.9912 10.4804 12.8848 10.7348 12.8848 11V18H10.8644V7C10.8644 6.73478 10.758 6.48043 10.5685 6.29289C10.3791 6.10536 10.1221 6 9.85422 6C9.5863 6 9.32936 6.10536 9.13991 6.29289C8.95046 6.48043 8.84403 6.73478 8.84403 7V18H6.82364V15C6.82364 14.7348 6.71721 14.4804 6.52776 14.2929C6.33832 14.1054 6.08137 14 5.81345 14C5.54553 14 5.28858 14.1054 5.09913 14.2929C4.90969 14.4804 4.80326 14.7348 4.80326 15V18H2.78287V1C2.78287 0.734784 2.67644 0.48043 2.48699 0.292893C2.29754 0.105357 2.0406 0 1.77268 0C1.50476 0 1.24781 0.105357 1.05836 0.292893C0.868912 0.48043 0.762482 0.734784 0.762482 1V19C0.762482 19.2652 0.868912 19.5196 1.05836 19.7071C1.24781 19.8946 1.50476 20 1.77268 20H19.9562C20.2241 20 20.481 19.8946 20.6705 19.7071C20.8599 19.5196 20.9664 19.2652 20.9664 19C20.9664 18.7348 20.8599 18.4804 20.6705 18.2929C20.481 18.1054 20.2241 18 19.9562 18Z" fill="#F1A132"/>
</svg>
