<svg width="112" height="36" viewBox="0 0 112 36" fill="none" xmlns="http://www.w3.org/2000/svg">
<path d="M1.18121 9.68786C6.12314 24.9555 15.1351 24.7868 17.793 24.7868C20.2953 24.7868 24.4172 25.7959 30.4866 13.4836C31.2838 11.8665 32.0513 10.1956 33.2785 8.87485C37.0701 4.79465 41.9941 5.36579 46.3652 15.4352C50.6242 23.1115 54.4722 16.4378 56.9397 10.0305C57.7686 7.87798 58.5709 5.66903 59.9862 3.84764C64.354 -1.77301 68.2923 1.19047 70.5649 10.4153C71.2272 13.1036 71.684 16.0391 73.7056 17.9309C76.5997 20.6391 81.2526 21.0012 85.7202 12.3706C91.6548 2.91665 95.5025 5.93244 97.9874 8.36912C98.8877 9.25198 99.6983 10.2314 100.369 11.2991V11.2991C101.226 12.6626 102.308 13.892 103.606 14.8444C105.566 16.2819 107.657 17.1239 110.819 13.3647" stroke="#F1A132" stroke-width="2" stroke-linecap="round"/>
</svg>
