<svg width="20" height="20" viewBox="0 0 20 20" fill="none" xmlns="http://www.w3.org/2000/svg">
<path d="M16.002 0H3.8797C3.07594 0 2.3051 0.316071 1.73676 0.87868C1.16841 1.44129 0.849121 2.20435 0.849121 3V14C0.849121 14.7956 1.16841 15.5587 1.73676 16.1213C2.3051 16.6839 3.07594 17 3.8797 17H6.4961L9.22363 19.71C9.31802 19.8027 9.42997 19.876 9.55304 19.9258C9.67612 19.9755 9.80792 20.0008 9.94086 20C10.1816 20 10.4145 19.9149 10.5975 19.76L13.8503 17H16.002C16.8058 17 17.5766 16.6839 18.145 16.1213C18.7133 15.5587 19.0326 14.7956 19.0326 14V3C19.0326 2.20435 18.7133 1.44129 18.145 0.87868C17.5766 0.316071 16.8058 0 16.002 0ZM17.0122 14C17.0122 14.2652 16.9058 14.5196 16.7163 14.7071C16.5269 14.8946 16.2699 15 16.002 15H13.4765C13.2358 15 13.0029 15.0851 12.8199 15.24L9.99137 17.64L7.62752 15.29C7.53313 15.1973 7.42118 15.124 7.2981 15.0742C7.17502 15.0245 7.04323 14.9992 6.91028 15H3.8797C3.61178 15 3.35484 14.8946 3.16539 14.7071C2.97594 14.5196 2.86951 14.2652 2.86951 14V3C2.86951 2.73478 2.97594 2.48043 3.16539 2.29289C3.35484 2.10536 3.61178 2 3.8797 2H16.002C16.2699 2 16.5269 2.10536 16.7163 2.29289C16.9058 2.48043 17.0122 2.73478 17.0122 3V14Z" fill="#F1A132"/>
</svg>
