<svg width="50" height="50" viewBox="0 0 50 50" fill="none" xmlns="http://www.w3.org/2000/svg">
<g clip-path="url(#clip0)">
<ellipse cx="26" cy="26" rx="17" ry="20" fill="white"/>
<path d="M25 0C20.0555 0 15.222 1.46622 11.1108 4.21326C6.99953 6.96029 3.79521 10.8648 1.90302 15.4329C0.0108322 20.0011 -0.484251 25.0277 0.480379 29.8773C1.44501 34.7268 3.82603 39.1814 7.32234 42.6777C10.8187 46.174 15.2732 48.555 20.1228 49.5196C24.9723 50.4843 29.9989 49.9892 34.5671 48.097C39.1353 46.2048 43.0397 43.0005 45.7867 38.8893C48.5338 34.778 50 29.9445 50 25C50 18.3696 47.3661 12.0107 42.6777 7.32233C37.9893 2.63392 31.6304 0 25 0V0ZM24.4542 7.6625H29.8375C29.9476 7.66264 30.0562 7.68823 30.1548 7.73726C30.2534 7.7863 30.3394 7.85747 30.4059 7.9452C30.4725 8.03293 30.5178 8.13486 30.5385 8.24302C30.5592 8.35119 30.5545 8.46266 30.525 8.56875L26.2958 22.9812L30.2646 21.7687L29.4146 24.6542L25.4063 25.8208L22.8063 34.6H36.7146C36.8248 34.6006 36.9334 34.6267 37.0319 34.6762C37.1304 34.7258 37.216 34.7974 37.2822 34.8856C37.3484 34.9738 37.3933 35.0761 37.4133 35.1844C37.4334 35.2928 37.4281 35.4044 37.3979 35.5104L36.1854 39.6771C36.1274 39.8753 36.0067 40.0494 35.8415 40.1733C35.6762 40.2973 35.4753 40.3644 35.2688 40.3646H14.0271L17.6167 28.2354L13.6458 29.4438L14.5208 26.6083L18.5 25.4L23.5458 8.35833C23.6012 8.15906 23.72 7.98329 23.8843 7.8577C24.0486 7.73211 24.2495 7.66358 24.4563 7.6625H24.4542Z" fill="#F1A132"/>
</g>
<defs>
<clipPath id="clip0">
<rect width="50" height="50" fill="white"/>
</clipPath>
</defs>
</svg>
