<svg width="21" height="33" viewBox="0 0 21 33" fill="none" xmlns="http://www.w3.org/2000/svg">
<path d="M3.1875 32.125H17.8125C18.4588 32.1244 19.0784 31.8673 19.5354 31.4104C19.9923 30.9534 20.2494 30.3338 20.25 29.6875L20.25 2.875C20.2494 2.22873 19.9923 1.60912 19.5354 1.15214C19.0784 0.695158 18.4588 0.438145 17.8125 0.4375L3.1875 0.4375C2.54133 0.438467 1.92191 0.695583 1.46499 1.15249C1.00808 1.60941 0.750967 2.22883 0.75 2.875L0.75 29.6875C0.750645 30.3338 1.00766 30.9534 1.46464 31.4104C1.92162 31.8673 2.54123 32.1244 3.1875 32.125ZM3.1875 29.6875V27.25H17.8125V29.6875L3.1875 29.6875ZM17.8125 2.875L17.8125 24.8125H3.1875L3.1875 2.875L17.8125 2.875Z" fill="#F1A132"/>
</svg>
