<svg width="16" height="18" viewBox="0 0 16 18" fill="none" xmlns="http://www.w3.org/2000/svg">
<path d="M3.27539 13.4861C3.27539 13.9432 3.64843 14.3162 4.10742 14.3162H5.05859V16.6678C5.05859 17.2635 5.5371 17.7498 6.12499 17.7498C6.71483 17.7498 7.1914 17.2654 7.1914 16.6678V14.3143H8.85155V16.6658C8.85155 17.2615 9.33006 17.7478 9.91795 17.7478C10.5078 17.7478 10.9844 17.2635 10.9844 16.6658V14.3143H11.9355C12.3945 14.3143 12.7676 13.9412 12.7676 13.4842V5.76543H3.27539V13.4861ZM10.25 1.76543L11.1269 0.495896C11.1777 0.421677 11.166 0.322068 11.0976 0.27324C11.0293 0.226365 10.9316 0.249802 10.8808 0.324021L9.97069 1.64433C9.37108 1.40801 8.70311 1.27715 8.00194 1.27715C7.30077 1.27715 6.6328 1.40801 6.03319 1.64433L5.12304 0.325974C5.07226 0.251755 4.9746 0.226365 4.90624 0.275193C4.83788 0.322068 4.82617 0.419724 4.87695 0.497849L5.7539 1.76738C4.35937 2.41582 3.38281 3.64433 3.25781 5.07988H12.75C12.6211 3.64238 11.6426 2.41386 10.25 1.76543ZM5.99804 3.76738C5.89413 3.76738 5.79255 3.73657 5.70615 3.67884C5.61975 3.62111 5.55241 3.53905 5.51264 3.44305C5.47288 3.34705 5.46247 3.24141 5.48274 3.13949C5.50302 3.03758 5.55305 2.94396 5.62653 2.87048C5.70001 2.79701 5.79362 2.74697 5.89554 2.72669C5.99746 2.70642 6.10309 2.71683 6.1991 2.75659C6.2951 2.79636 6.37715 2.8637 6.43488 2.9501C6.49261 3.0365 6.52343 3.13808 6.52343 3.24199C6.52307 3.38122 6.4676 3.51465 6.36915 3.6131C6.27069 3.71155 6.13727 3.76702 5.99804 3.76738ZM10.0683 3.76738C9.96443 3.76738 9.86285 3.73657 9.77645 3.67884C9.69005 3.62111 9.62271 3.53905 9.58295 3.44305C9.54318 3.34705 9.53278 3.24141 9.55305 3.13949C9.57332 3.03758 9.62336 2.94396 9.69684 2.87048C9.77032 2.79701 9.86393 2.74697 9.96585 2.72669C10.0678 2.70642 10.1734 2.71683 10.2694 2.75659C10.3654 2.79636 10.4475 2.8637 10.5052 2.9501C10.5629 3.0365 10.5937 3.13808 10.5937 3.24199C10.5934 3.38122 10.5379 3.51465 10.4395 3.6131C10.341 3.71155 10.2076 3.76702 10.0683 3.76738ZM14.4316 5.73418C13.8418 5.73418 13.3652 6.21855 13.3652 6.81621V11.0428C13.3652 11.6385 13.8437 12.1248 14.4316 12.1248C15.0215 12.1248 15.498 11.6404 15.498 11.0428V6.81426C15.5 6.2166 15.0234 5.73418 14.4316 5.73418ZM1.56836 5.73418C0.978515 5.73418 0.501953 6.21855 0.501953 6.81621V11.0428C0.501953 11.6385 0.980468 12.1248 1.56836 12.1248C2.1582 12.1248 2.63476 11.6404 2.63476 11.0428V6.81426C2.63476 6.2166 2.15625 5.73418 1.56836 5.73418Z" fill="white"/>
</svg>
