<svg width="20" height="18" viewBox="0 0 20 18" fill="none" xmlns="http://www.w3.org/2000/svg">
<path d="M9.99999 3.075L11.725 6.5625L12.0125 7.1875L12.6375 7.28125L16.4875 7.8375L13.75 10.525L13.2812 10.9812L13.3937 11.6062L14.05 15.4375L10.6062 13.6313L9.99999 13.375L9.41874 13.6812L5.97499 15.4625L6.59999 11.6312L6.71249 11.0062L6.24999 10.525L3.48749 7.80625L7.33749 7.25L7.96249 7.15625L8.24999 6.53125L9.99999 3.075ZM9.99999 0.25L7.15624 6.0125L0.799988 6.93125L5.39999 11.4188L4.31249 17.75L9.99999 14.7625L15.6875 17.75L14.6 11.4188L19.2 6.9375L12.8437 6.0125L9.99999 0.25Z" fill="white"/>
</svg>
