<svg width="52" height="52" viewBox="0 0 52 52" fill="none" xmlns="http://www.w3.org/2000/svg">
<path d="M26 48.75C21.5005 48.75 17.102 47.4157 13.3608 44.9159C9.61957 42.4161 6.70364 38.8631 4.98175 34.7061C3.25986 30.549 2.80933 25.9748 3.68715 21.5617C4.56496 17.1486 6.73169 13.095 9.91333 9.91333C13.095 6.73169 17.1486 4.56496 21.5617 3.68715C25.9748 2.80933 30.549 3.25986 34.7061 4.98175C38.8631 6.70364 42.4161 9.61957 44.9159 13.3608C47.4157 17.102 48.75 21.5005 48.75 26C48.75 32.0337 46.3531 37.8202 42.0867 42.0867C37.8202 46.3531 32.0337 48.75 26 48.75ZM26 6.50001C22.1433 6.50001 18.3731 7.64366 15.1664 9.78635C11.9596 11.929 9.46027 14.9745 7.98436 18.5377C6.50845 22.1008 6.12229 26.0216 6.8747 29.8043C7.62711 33.5869 9.4843 37.0615 12.2114 39.7886C14.9386 42.5157 18.4131 44.3729 22.1957 45.1253C25.9784 45.8777 29.8992 45.4916 33.4623 44.0157C37.0255 42.5397 40.071 40.0404 42.2137 36.8336C44.3564 33.6269 45.5 29.8567 45.5 26C45.5 20.8283 43.4455 15.8684 39.7886 12.2114C36.1316 8.55447 31.1717 6.50001 26 6.50001Z" fill="white"/>
<path d="M33.4587 35.75L24.375 26.6663V11.375H27.625V25.3175L35.75 33.4587L33.4587 35.75Z" fill="white"/>
</svg>
